<svg class="img-fluid" id="outputsvg" xmlns="http://www.w3.org/2000/svg" style="transform: matrix(1.11388, 0, 0, 1.11388, 17.5224, 16.2001); transform-origin: 50% 50%; cursor: move; transition: none;" width="283" height="400" viewBox="0 0 2830 4000"><g id="l6FWGX3CLOy80c9l5jH51FS" fill="rgb(255,255,255)" style="transform: none;"><g style="transform: none;"><path id="puYixd40y" d="M1420 3775 c-82 -18 -302 -128 -352 -175 l-37 -36 3 -92 c1 -51 1 -92 -1 -92 -17 0 -151 22 -163 27 -8 3 -42 5 -75 4 -76 -3 -168 13 -263 45 -72 25 -73 25 -118 8 -36 -14 -49 -26 -61 -53 -9 -20 -20 -46 -26 -58 -7 -16 -7 -39 2 -79 12 -50 17 -58 59 -85 60 -38 150 -66 278 -87 l101 -16 -9 -40 c-5 -23 -23 -84 -40 -136 -17 -52 -48 -158 -68 -235 l-37 -140 -42 -10 c-40 -9 -42 -10 -39 -45 3 -32 6 -35 36 -38 24 -2 32 -8 32 -23 0 -15 7 -19 38 -19 36 0 38 2 49 43 7 23 30 110 53 192 22 83 56 206 76 275 19 69 37 148 40 175 3 28 15 72 26 99 11 28 18 63 16 82 -3 23 0 34 8 34 26 0 181 -53 223 -76 62 -34 106 -32 126 6 13 24 22 30 50 30 28 0 39 7 62 38 15 20 34 41 41 45 7 5 17 19 22 31 5 15 20 25 39 29 17 4 31 12 31 19 0 7 39 36 86 63 121 70 170 120 176 175 3 34 -1 49 -17 66 -46 50 -210 75 -325 49z"></path><path id="pODzmIrSO" d="M1360 2926 c0 -18 6 -39 13 -45 23 -18 301 -81 361 -81 l56 0 0 34 c0 24 -5 36 -17 40 -67 20 -361 86 -384 86 -26 0 -29 -3 -29 -34z"></path><path id="p1FIaiuZPj" d="M1140 2736 c0 -11 -22 -16 -86 -21 l-86 -8 3 -186 c4 -231 -5 -317 -34 -333 -19 -10 -401 -119 -402 -115 0 1 -10 20 -23 42 -52 91 -148 286 -182 370 -37 89 -37 90 -75 93 l-37 3 7 -58 c13 -108 57 -308 90 -410 l33 -102 -54 -31 c-65 -36 -94 -79 -94 -137 0 -24 20 -98 46 -175 26 -73 48 -145 50 -161 5 -36 24 -73 101 -189 67 -103 138 -170 226 -214 63 -33 187 -64 250 -64 45 0 54 -4 88 -40 21 -22 44 -58 50 -80 16 -52 38 -52 98 -1 55 46 107 73 180 95 73 21 113 20 144 -4 26 -21 67 -27 67 -10 0 6 13 10 30 10 55 0 109 29 134 74 70 122 165 632 186 1004 6 97 16 245 22 327 6 83 12 166 12 185 l1 34 -70 13 c-99 17 -159 17 -152 -1 6 -15 -16 -212 -68 -591 -36 -266 -42 -302 -49 -294 -2 2 -12 137 -21 299 -14 237 -15 312 -5 386 9 72 9 102 -1 136 -7 23 -12 46 -11 49 1 4 -10 17 -24 30 -21 20 -38 24 -102 27 -42 2 -81 8 -86 13 -6 5 -22 9 -37 9 -19 0 -30 6 -34 20 -5 16 -15 20 -46 20 -27 0 -39 -4 -39 -14z"></path><path id="pGnmbMCUG" d="M1280 983 c-49 -8 -80 -25 -80 -44 0 -14 -7 -19 -29 -19 -17 0 -46 -14 -75 -35 -25 -20 -46 -31 -46 -25 0 5 -9 10 -19 10 -13 0 -26 -14 -38 -40 -13 -29 -24 -40 -41 -40 -13 0 -37 -13 -53 -29 -25 -25 -29 -36 -27 -74 2 -31 7 -43 16 -40 14 6 13 13 16 -107 2 -110 22 -164 88 -229 59 -60 119 -85 211 -89 167 -8 282 81 322 251 10 40 24 77 32 83 9 8 10 13 3 16 -8 2 -10 25 -5 76 4 39 11 70 14 67 7 -4 3 114 -4 152 -3 12 -11 28 -18 35 -7 7 -18 26 -25 41 -12 27 -15 28 -72 26 -36 -2 -65 2 -72 9 -12 12 -47 13 -98 5z"></path></g></g><g id="l7Bw711zIoeD5UjHLWvngKc" fill="rgb(0,0,0)" style="transform: none;"><g style="transform: none;"><path id="p165iFcO1V" d="M1420 3775 c-82 -18 -302 -128 -352 -175 l-37 -36 3 -92 c1 -51 1 -92 -1 -92 -17 0 -151 22 -163 27 -8 3 -42 5 -75 4 -76 -3 -168 13 -263 45 -71 25 -73 25 -118 8 -42 -16 -74 -52 -74 -85 0 -6 -18 -32 -41 -56 -90 -98 -125 -228 -116 -428 6 -132 44 -414 76 -570 23 -108 72 -278 78 -271 3 2 -11 78 -31 168 -72 336 -76 409 -11 243 32 -80 145 -309 181 -366 13 -21 24 -40 24 -43 0 -2 -32 -12 -71 -22 -90 -23 -178 -72 -206 -114 -34 -50 -29 -100 24 -252 25 -73 47 -147 47 -163 2 -43 127 -237 197 -306 32 -30 85 -70 118 -87 71 -39 195 -72 264 -72 45 0 54 -4 88 -40 50 -53 68 -109 45 -144 -15 -24 -15 -25 1 -19 10 4 14 2 10 -4 -4 -6 -4 -32 0 -58 l6 -48 15 29 c19 38 56 77 103 109 l37 26 50 -50 c39 -39 60 -52 92 -57 33 -6 40 -10 35 -25 -6 -17 -4 -17 22 -4 24 13 30 13 42 0 13 -13 12 -18 -12 -43 -15 -15 -27 -36 -27 -45 0 -31 -16 -17 -39 33 -31 68 -65 93 -115 87 -58 -8 -86 -41 -93 -110 l-6 -57 -54 0 c-112 0 -176 31 -175 87 0 25 12 41 58 70 18 11 18 12 -4 12 -13 1 -37 -12 -53 -28 -25 -25 -29 -36 -27 -74 2 -31 7 -43 16 -40 14 6 13 13 16 -107 2 -110 22 -164 88 -229 59 -60 119 -85 211 -89 88 -5 139 10 206 58 57 42 91 98 116 193 18 69 25 83 44 85 12 2 27 12 34 23 6 10 21 20 32 20 17 1 17 2 3 6 -11 3 -18 14 -18 29 0 13 -11 42 -25 64 -19 31 -25 53 -25 99 0 49 -7 73 -35 128 -19 37 -35 71 -35 76 0 4 13 7 30 7 55 0 109 29 134 74 71 122 165 631 186 1004 16 278 30 465 36 490 8 27 23 28 189 7 370 -46 525 18 525 217 0 90 -48 187 -128 258 -140 125 -493 240 -913 297 -78 10 -128 21 -126 28 2 5 19 10 38 11 27 0 34 4 32 20 -1 14 20 32 84 69 120 70 169 120 175 175 3 34 -1 49 -17 66 -46 50 -210 75 -325 49z m274 -43 c62 -28 54 -38 -15 -18 -83 25 -259 17 -278 -12 -3 -5 -69 -37 -146 -71 -77 -34 -157 -75 -177 -92 -42 -33 -52 -20 -18 24 37 47 235 152 344 182 78 22 229 15 290 -13z m-14 -55 c58 -16 63 -38 16 -82 -36 -34 -233 -158 -251 -158 -5 0 -21 3 -35 7 -24 7 -24 6 -5 -9 19 -15 19 -16 -7 -42 -24 -24 -30 -25 -55 -15 l-28 12 22 -18 22 -19 -28 -33 c-23 -28 -32 -32 -55 -26 -16 4 -34 19 -44 38 -48 88 -93 109 -144 68 -31 -24 -38 -18 -38 31 0 61 44 95 233 177 89 39 169 73 177 75 28 10 175 5 220 -6z m-1100 -247 c41 -13 81 -24 89 -26 10 -3 12 -17 6 -59 -3 -30 -4 -55 -1 -55 3 0 13 25 22 55 20 61 41 69 36 13 -4 -48 15 -58 24 -13 7 38 22 51 69 56 29 4 30 3 33 -45 5 -70 -4 -94 -41 -116 -19 -12 -25 -20 -16 -20 9 0 28 9 43 21 l26 21 -10 -27 c-27 -70 -23 -68 -129 -62 -159 10 -265 54 -312 131 -23 38 -25 103 -3 135 19 27 46 26 164 -9z m-197 -47 c-6 -63 19 -108 82 -151 67 -45 166 -73 269 -75 79 -2 85 -4 91 -25 6 -25 -15 -114 -80 -337 -24 -82 -51 -179 -60 -215 -10 -36 -18 -69 -20 -75 -1 -5 -6 -25 -10 -42 -4 -18 -12 -33 -17 -33 -6 0 -7 11 -4 26 6 24 5 25 -23 19 -50 -11 -60 7 -11 19 l43 11 37 140 c20 77 51 183 68 235 30 91 65 231 60 235 -2 1 -41 7 -87 13 -122 17 -232 49 -293 86 -49 29 -54 35 -67 86 -12 48 -12 60 2 93 9 20 18 37 20 37 2 0 2 -21 0 -47z m771 11 c9 -3 28 -28 43 -55 14 -27 30 -49 35 -49 5 0 2 -13 -7 -30 -9 -16 -17 -30 -19 -30 -2 0 -23 11 -47 24 -24 13 -63 30 -86 37 -24 7 -43 18 -43 25 0 15 79 84 96 84 7 0 19 -3 28 -6z m-116 -29 c3 -3 -14 -42 -23 -52 -1 -2 -25 4 -54 12 -28 9 -56 13 -61 10 -6 -4 -10 6 -10 21 l0 27 73 -8 c39 -3 73 -8 75 -10z m537 -480 c168 -39 212 -54 162 -55 -51 0 -325 70 -339 88 -11 13 -11 15 2 10 8 -3 87 -22 175 -43z m-381 -180 c3 -8 8 -55 12 -105 4 -49 10 -90 14 -90 4 0 10 37 13 81 7 87 9 95 26 84 16 -9 13 -238 -4 -318 -22 -104 -67 -178 -160 -263 -44 -40 -94 -83 -112 -96 -18 -13 -58 -43 -90 -68 -32 -25 -83 -62 -113 -83 -60 -41 -114 -83 -90 -71 14 7 124 80 174 114 30 21 121 92 186 144 30 25 60 45 67 46 6 0 28 19 48 43 87 100 127 235 124 416 l-1 116 70 0 c61 0 74 -3 96 -24 40 -37 48 -82 35 -191 -9 -75 -8 -150 4 -360 10 -174 12 -284 6 -320 -8 -53 -20 -184 -35 -393 -5 -73 -4 -97 5 -97 7 0 9 5 5 11 -6 10 6 212 22 377 7 71 24 66 24 -8 0 -32 5 -94 12 -137 10 -62 13 -72 18 -48 3 17 5 45 5 63 0 17 0 32 2 32 1 0 31 -15 65 -34 35 -18 76 -37 92 -40 27 -7 28 -8 21 -54 -3 -26 -15 -91 -26 -145 -39 -194 -78 -256 -168 -265 -40 -4 -55 0 -77 17 -15 11 -37 21 -49 21 -20 0 -24 7 -33 59 -21 118 -84 171 -205 171 -127 0 -244 -71 -276 -166 -24 -73 -29 -76 -102 -59 -174 40 -339 173 -418 336 -52 108 -164 415 -164 450 0 37 37 86 83 109 21 11 170 55 331 100 162 44 308 86 325 94 29 13 31 18 42 102 7 56 9 151 5 257 -4 113 -3 167 4 167 15 0 23 -22 42 -114 10 -47 22 -81 30 -84 12 -4 13 13 8 96 -4 66 -2 104 4 108 19 11 29 -11 46 -99 9 -48 21 -87 26 -87 5 0 8 41 7 93 -2 50 -2 100 -1 110 1 21 17 22 25 2z m473 -69 c8 -6 -107 -859 -118 -871 -5 -5 -10 18 -11 55 -2 72 -2 78 6 170 3 43 2 51 -2 25 -7 -37 -8 -35 -15 35 -16 180 -19 310 -7 397 11 86 9 105 -14 183 -3 10 61 17 109 12 28 -2 51 -5 52 -6z m132 -22 c28 -4 53 -9 55 -13 2 -3 0 -36 -5 -73 -4 -37 -13 -178 -19 -315 -10 -246 -24 -382 -58 -583 l-18 -105 -39 2 c-21 2 -67 16 -102 32 l-63 30 0 55 c0 30 7 83 15 118 33 144 125 757 125 835 0 34 1 35 29 30 15 -3 51 -9 80 -13z m-521 -1368 c36 -19 66 -71 75 -132 l7 -41 -77 -22 c-96 -28 -145 -53 -203 -102 l-45 -39 -22 50 c-22 50 -76 110 -100 110 -20 0 -15 19 17 70 56 87 149 133 255 126 34 -2 75 -11 93 -20z m119 -336 c6 0 16 7 23 15 15 18 51 20 68 3 20 -20 14 -48 -17 -79 -25 -24 -38 -29 -79 -29 -45 0 -50 2 -45 20 6 22 24 25 53 10 23 -13 35 3 15 20 -8 7 -26 10 -39 6 -18 -4 -25 -1 -29 14 -11 41 -27 21 -20 -25 6 -48 4 -51 -30 -34 -68 35 -88 88 -39 107 51 20 76 19 103 -5 14 -13 30 -23 36 -23z m147 -52 c3 -13 6 -40 6 -61 0 -32 -3 -37 -17 -33 -10 3 -35 2 -55 -3 -56 -13 -67 7 -19 36 22 13 45 37 53 53 15 36 24 38 32 8z m-246 -111 c29 -31 55 -95 48 -122 -11 -43 -106 -52 -153 -13 -15 11 -16 11 -10 -4 9 -25 -19 -23 -33 1 -23 44 -4 131 33 149 39 19 92 14 115 -11z m229 -3 c20 -6 21 -10 16 -77 -6 -71 -22 -128 -23 -79 0 25 -3 26 -29 10 -15 -9 -23 -9 -35 1 -23 19 -20 29 7 24 28 -6 66 32 50 48 -8 8 -14 5 -22 -9 -16 -29 -51 -18 -51 17 0 54 33 79 87 65z m59 -55 c10 -20 14 -43 10 -64 -6 -32 -31 -63 -42 -52 -6 5 6 147 12 147 2 0 11 -14 20 -31z m-161 -18 c-4 -21 -13 -31 -25 -31 -22 0 -18 22 8 53 20 23 25 16 17 -22z m1 -48 c-3 -3 2 -13 11 -22 16 -15 13 -16 -36 -19 -29 -2 -55 -1 -57 1 -2 2 1 15 8 28 9 20 17 24 45 21 19 -3 32 -7 29 -9z m-286 -28 c31 -27 89 -32 348 -34 47 0 51 -9 27 -55 -8 -15 -15 -38 -15 -50 0 -30 -49 -105 -91 -140 -143 -121 -366 -79 -450 85 -25 51 -40 131 -33 178 l6 37 96 -4 c59 -3 103 -9 112 -17z"></path><path id="pgoVYc0Uw" d="M623 1738 c-24 -17 -43 -37 -43 -44 0 -7 11 -26 25 -42 l24 -29 -87 -41 c-48 -23 -112 -51 -142 -62 -51 -18 -52 -19 -15 -13 50 7 186 56 230 82 l33 19 42 -58 c22 -33 45 -62 50 -65 15 -9 -58 115 -101 172 l-39 52 30 17 c16 10 32 24 34 31 7 17 8 17 -41 -19z"></path><path id="p1CsANNriy" d="M1210 670 c0 -37 56 -54 80 -25 16 19 5 34 -12 17 -17 -17 -45 -15 -57 6 -9 14 -10 14 -11 2z"></path><path id="p2vBEo1rs" d="M962 714 c-15 -16 -18 -24 -9 -24 17 0 51 36 40 43 -4 2 -18 -6 -31 -19z"></path></g></g></svg>